# xmcd
#
# Track frame offsets:
#	150
#	13775
#	27337
#	44837
#	67212
#	90850
#	104325
#	115750
#	134650
#	154212
#	170187
#	187200
#	202775
#	216587
#	232600
#	249137
#	262825
#	274000
#	286387
#
# Disc length: 3961 seconds
#
# Revision: 0
# Processed by: cddbd v1.5.2PL0 Copyright (c) Steve Scherf et al.
# Submitted via: EZCDAudioConverter 6.0.9.1
#
DISCID=170f7713
DTITLE=许冠杰 - SAM白金精选
DYEAR=1993
DGENRE=
TTITLE0=双星情歌
TTITLE1=天才白痴往日情
TTITLE2=两个寂寞人
TTITLE3=亦算是缘分
TTITLE4=阿郎恋曲
TTITLE5=沧海一声笑
TTITLE6=天才白痴梦
TTITLE7=做个自由人
TTITLE8=是雨？是泪？
TTITLE9=心思思
TTITLE10=我未惊过
TTITLE11=成日记住笑
TTITLE12=相思万千重
TTITLE13=难忘你
TTITLE14=纸船
TTITLE15=世事如棋
TTITLE16=鬼马双星
TTITLE17=卖身契
TTITLE18=锡嗮你
EXTD=
EXTT0=
EXTT1=
EXTT2=
EXTT3=
EXTT4=
EXTT5=
EXTT6=
EXTT7=
EXTT8=
EXTT9=
EXTT10=
EXTT11=
EXTT12=
EXTT13=
EXTT14=
EXTT15=
EXTT16=
EXTT17=
EXTT18=
PLAYORDER=
